<?xml version="1.0" standalone="no"?>
<!DOCTYPE svg PUBLIC "-//W3C//DTD SVG 20010904//EN"
 "http://www.w3.org/TR/2001/REC-SVG-20010904/DTD/svg10.dtd">
<svg version="1.0" xmlns="http://www.w3.org/2000/svg"
 width="768.000000pt" height="768.000000pt" viewBox="0 0 768.000000 768.000000"
 preserveAspectRatio="xMidYMid meet">

<g transform="translate(0.000000,768.000000) scale(0.100000,-0.100000)"
fill="#000000" stroke="none">
<path d="M3750 6410 c-14 -14 -33 -20 -68 -20 -27 0 -52 -3 -55 -6 -4 -4 -24
-8 -44 -9 -67 -5 -188 -24 -217 -35 -33 -12 -32 -39 1 -56 21 -10 15 -13 -59
-39 -97 -34 -261 -139 -266 -170 -1 -11 -23 -33 -48 -49 -53 -34 -74 -61 -74
-98 0 -23 5 -28 23 -28 13 0 31 -6 42 -13 17 -13 16 -17 -25 -77 -58 -86 -80
-147 -80 -224 0 -46 5 -70 18 -87 16 -20 19 -43 20 -129 0 -65 9 -144 21 -205
12 -54 21 -117 21 -139 0 -76 31 -221 61 -287 33 -72 35 -115 6 -133 -26 -16
-57 24 -93 116 -38 99 -48 107 -24 19 36 -129 77 -181 143 -181 17 0 27 -7 32
-22 4 -13 8 -27 10 -33 60 -190 125 -300 246 -416 33 -31 59 -59 59 -63 0 -4
-11 -22 -25 -40 -13 -17 -40 -66 -59 -108 l-35 -76 -58 -16 c-208 -58 -545
-182 -616 -228 -68 -43 -137 -125 -195 -231 -66 -120 -210 -479 -273 -681 -27
-88 -63 -196 -80 -240 -53 -137 -82 -270 -82 -371 0 -102 23 -216 57 -291 29
-63 97 -113 249 -182 l102 -47 119 0 120 0 13 -78 c16 -97 33 -130 77 -151 31
-14 137 -16 1139 -16 1103 0 1104 0 1131 21 38 30 47 52 51 127 2 37 1 55 -1
40 -8 -43 -87 -87 -171 -96 -68 -7 -1636 -6 -1933 1 -85 2 -163 8 -174 12 -10
4 -34 8 -55 9 -35 1 -36 2 -48 56 -27 125 -35 181 -44 290 -12 165 -20 224
-29 210 -12 -20 -30 22 -30 69 0 76 26 100 33 29 3 -40 4 -38 5 12 2 30 -10
175 -25 321 -29 288 -27 313 21 338 16 9 153 13 496 15 l475 3 6 79 c38 457
36 485 -36 669 -45 117 -52 141 -36 131 4 -3 6 6 3 19 -2 14 3 36 12 50 14 21
24 25 65 25 26 0 73 -5 102 -10 93 -18 168 -21 252 -10 187 25 190 25 225 -4
28 -24 31 -33 30 -74 -1 -30 -15 -76 -39 -129 -46 -101 -65 -168 -74 -253 -6
-63 8 -380 21 -462 l7 -40 70 7 c38 3 259 3 490 -1 521 -9 473 11 470 -196 -1
-79 -6 -181 -12 -228 -14 -110 -24 -363 -12 -330 l8 25 7 -27 c5 -15 4 -37 0
-50 l-8 -23 -6 25 c-4 17 -10 -8 -18 -75 -26 -223 -34 -317 -28 -323 12 -12
291 19 353 39 35 12 103 49 159 87 78 53 103 77 121 112 73 144 70 320 -10
530 -13 36 -50 135 -81 220 -165 450 -291 734 -389 880 -46 69 -147 169 -197
195 -41 20 -136 52 -445 148 -189 58 -191 59 -237 151 -22 45 -49 93 -59 107
l-19 27 71 60 c118 100 197 219 259 391 16 46 30 86 30 88 0 1 12 3 28 3 15 0
38 7 50 16 23 16 72 103 72 126 -1 7 -11 -7 -24 -32 -45 -86 -98 -107 -104
-41 -2 23 8 56 33 107 20 40 34 77 31 82 -5 8 7 139 20 229 6 40 34 58 67 43
21 -11 22 -11 2 5 -11 9 -28 14 -37 11 -21 -5 -22 1 -2 79 8 33 17 114 21 180
4 74 11 124 18 130 33 27 43 116 24 207 -17 80 -94 217 -160 284 -49 50 -135
104 -167 104 -15 0 -30 19 -59 73 -59 108 -182 202 -258 196 -16 -2 -55 4 -85
13 -53 15 -272 58 -297 58 -7 0 -22 -9 -33 -20z m-25 -136 c28 -4 66 -15 86
-25 20 -10 39 -15 43 -12 3 4 6 1 6 -6 0 -7 4 -10 9 -7 15 10 82 -64 79 -87
-5 -32 -32 -44 -70 -29 -31 11 -211 117 -252 147 -24 18 -11 37 22 31 15 -3
50 -8 77 -12z m-19 -149 c41 -21 107 -90 93 -98 -57 -33 -62 -32 -148 18 -31
18 -84 43 -118 55 -95 34 -83 47 48 49 62 1 84 -3 125 -24z m358 -425 c208 -1
287 -5 311 -14 64 -27 103 -87 154 -236 22 -63 35 -118 67 -280 19 -98 22
-327 5 -405 -7 -33 -22 -103 -33 -155 -23 -109 -48 -186 -93 -285 -51 -113
-235 -286 -384 -360 -165 -83 -335 -84 -497 -2 -60 30 -236 164 -287 218 -24
25 -127 190 -127 203 -1 6 -9 29 -20 51 -11 22 -19 48 -20 58 0 10 -5 27 -11
38 -5 11 -20 55 -32 97 -20 69 -22 101 -22 317 l0 240 38 150 c21 83 43 168
50 190 15 50 66 99 137 132 30 13 69 31 85 38 23 11 74 13 215 10 102 -2 311
-5 464 -5z"/>
<path d="M3425 5278 c-27 -5 -86 -27 -131 -48 -92 -44 -115 -74 -86 -109 17
-21 17 -21 106 15 76 31 104 37 200 43 l111 6 0 35 c0 61 -73 82 -200 58z"/>
<path d="M4090 5283 c-28 -11 -50 -36 -50 -59 0 -33 22 -41 135 -47 76 -3 117
-11 170 -32 103 -40 121 -42 128 -14 10 37 -14 70 -73 100 -90 46 -252 73
-310 52z"/>
<path d="M3435 5080 c-33 -4 -78 -16 -101 -28 -66 -34 -143 -131 -131 -166 2
-6 12 6 21 26 29 61 104 124 165 137 67 14 107 13 154 -3 45 -16 69 -37 108
-90 40 -54 37 -19 -3 40 -50 73 -108 96 -213 84z"/>
<path d="M4154 5077 c-70 -27 -152 -107 -142 -138 2 -6 15 6 29 27 61 92 198
126 290 72 52 -30 104 -86 126 -132 l14 -31 -5 36 c-11 91 -113 171 -220 176
-34 1 -75 -3 -92 -10z"/>
<path d="M3390 5018 c-37 -38 -55 -70 -64 -115 -12 -54 38 -133 83 -133 9 0 2
11 -17 26 -18 15 -32 35 -32 46 0 17 3 17 37 -7 21 -14 46 -25 56 -25 33 0 73
28 92 64 24 44 33 45 38 4 3 -27 4 -24 5 12 2 65 -29 127 -72 145 -56 24 -90
19 -126 -17z m88 -14 c29 -20 28 -30 -7 -49 -50 -25 -77 0 -49 45 15 24 27 25
56 4z"/>
<path d="M4190 5043 c-23 -9 -60 -45 -76 -75 -18 -35 -18 -121 1 -157 15 -29
65 -57 87 -48 7 3 4 6 -8 6 -30 1 -56 24 -49 43 5 12 13 14 33 9 15 -4 37 -5
50 -3 26 4 67 55 77 95 8 30 20 35 29 11 12 -32 5 -71 -21 -109 l-26 -40 27
25 c62 56 70 105 29 168 -38 58 -107 92 -153 75z m38 -54 c4 -34 -20 -54 -47
-39 -38 20 -18 74 24 68 13 -2 21 -12 23 -29z"/>
<path d="M3566 4823 c-6 -14 -5 -15 5 -6 7 7 10 15 7 18 -3 3 -9 -2 -12 -12z"/>
<path d="M3978 4574 c-5 -4 -8 -15 -8 -25 0 -36 -47 -59 -120 -59 -61 0 -71 3
-99 29 -24 22 -33 26 -37 16 -9 -23 24 -79 63 -105 89 -60 219 7 211 109 -2
24 -6 39 -10 35z"/>
<path d="M3512 4364 c5 -26 89 -81 157 -101 67 -20 250 -22 326 -4 59 14 145
67 145 88 0 10 -6 13 -17 8 -58 -22 -133 -27 -308 -22 -181 5 -210 9 -289 42
-14 6 -17 4 -14 -11z"/>
<path d="M2861 4989 c1 -24 5 -55 9 -69 5 -15 6 1 3 40 -7 76 -13 93 -12 29z"/>
<path d="M4808 4980 c-4 -19 -9 -57 -12 -85 -5 -47 -4 -45 10 15 8 36 13 74
11 85 -2 13 -5 8 -9 -15z"/>
<path d="M2877 4870 c3 -11 7 -20 9 -20 2 0 4 9 4 20 0 11 -4 20 -9 20 -5 0
-7 -9 -4 -20z"/>
<path d="M4782 4820 c0 -14 2 -19 5 -12 2 6 2 18 0 25 -3 6 -5 1 -5 -13z"/>
<path d="M4772 4770 c0 -14 2 -19 5 -12 2 6 2 18 0 25 -3 6 -5 1 -5 -13z"/>
<path d="M3760 2138 c-35 -18 -51 -36 -72 -78 -34 -65 -35 -103 -5 -160 48
-91 171 -117 252 -55 120 91 60 292 -92 312 -28 3 -50 -2 -83 -19z"/>
</g>
</svg>
